# xmcd
#
# Track frame offsets: 
#        150
#        22130
#        53080
#        69600
#        99565
#        121888
#        139811
#        163082
#        184226
#        204482
#        227905
#        242416
#        255718
#        271348
#        284563
#        295324
#        306317
#
# Disc length: 4282 seconds
#
# Revision: 1
# Processed by: cddbd v1.5.2PL0 Copyright (c) Steve Scherf et al.
# Submitted via: ExactAudioCopy v0.99pb4
#
DISCID=0810b811
DTITLE=The Moody Blues - Collected [CD3]
DYEAR=2007
DGENRE=Progressive Rock
TTITLE0=Your Wildest Dreams
TTITLE1=The Other Side Of Life
TTITLE2=Vintage Wine
TTITLE3=I Know You're Out There Somewhere
TTITLE4=Lean On Me (Tonight)
TTITLE5=Say It With Love
TTITLE6=Bless The Wings (That Bring You Back)
TTITLE7=This Is The Moment
TTITLE8=Strange Times
TTITLE9=December Snow
TTITLE10=Go Now
TTITLE11=Boulevard De La Madeleine
TTITLE12=From The Bottom Of My Heart (I Love You)
TTITLE13=Fly Me High
TTITLE14=Cities
TTITLE15=Love And Beauty
TTITLE16=A Simple Game
EXTD=
EXTT0=
EXTT1=
EXTT2=
EXTT3=
EXTT4=
EXTT5=
EXTT6=
EXTT7=
EXTT8=
EXTT9=
EXTT10=
EXTT11=
EXTT12=
EXTT13=
EXTT14=
EXTT15=
EXTT16=
PLAYORDER=
